<?xml version="1.0" standalone="no"?>
<!DOCTYPE svg PUBLIC "-//W3C//DTD SVG 20010904//EN"
 "http://www.w3.org/TR/2001/REC-SVG-20010904/DTD/svg10.dtd">
<svg version="1.0" xmlns="http://www.w3.org/2000/svg"
 width="256.000000pt" height="256.000000pt" viewBox="0 0 256.000000 256.000000"
 preserveAspectRatio="xMidYMid meet">
<metadata>
Created by potrace 1.11, written by Peter Selinger 2001-2013
</metadata>
<g transform="translate(0.000000,256.000000) scale(0.100000,-0.100000)"
fill="#000000" stroke="none">
<path d="M1090 2484 c-84 -15 -179 -40 -227 -60 -17 -8 -35 -14 -40 -14 -12 0
-180 -87 -193 -100 -3 -3 -32 -23 -64 -45 -66 -44 -225 -199 -253 -245 -9 -17
-21 -30 -25 -30 -4 0 -8 -7 -8 -15 0 -8 -4 -15 -8 -15 -5 0 -19 -19 -31 -42
-12 -24 -33 -62 -46 -85 -19 -36 -73 -165 -82 -198 -41 -153 -48 -207 -48
-355 0 -111 4 -160 19 -250 10 -53 46 -168 76 -237 110 -260 325 -488 577
-612 93 -46 209 -87 284 -101 30 -6 65 -13 79 -16 14 -4 84 -8 155 -9 118 -3
159 0 279 20 57 10 201 58 271 91 68 32 198 112 203 125 2 5 9 9 17 9 18 0
204 186 240 240 16 25 33 47 36 50 3 3 14 21 25 40 10 19 21 37 24 40 6 6 54
102 55 110 0 3 6 15 13 28 7 12 10 22 6 22 -3 0 -2 6 4 12 10 13 39 100 48
148 40 192 43 353 11 520 -69 355 -304 671 -629 848 -32 17 -58 28 -58 24 0
-4 -4 -2 -8 4 -8 11 -152 67 -152 58 0 -2 -10 0 -21 7 -76 40 -375 59 -529 33z"/>
</g>
</svg>
