<?xml version="1.0" standalone="no"?>
<!DOCTYPE svg PUBLIC "-//W3C//DTD SVG 20010904//EN"
 "http://www.w3.org/TR/2001/REC-SVG-20010904/DTD/svg10.dtd">
<svg version="1.0" xmlns="http://www.w3.org/2000/svg"
 width="260.000000pt" height="260.000000pt" viewBox="0 0 260.000000 260.000000"
 preserveAspectRatio="xMidYMid meet">
<metadata>
Created by potrace 1.11, written by Peter Selinger 2001-2013
</metadata>
<g transform="translate(0.000000,260.000000) scale(0.100000,-0.100000)"
fill="#000000" stroke="none">
<path d="M1189 2536 c-2 -2 -26 -7 -54 -10 -27 -3 -57 -7 -65 -9 -8 -2 -33 -7
-55 -12 -22 -4 -46 -12 -52 -18 -7 -5 -13 -7 -13 -4 0 15 -219 -76 -232 -97
-4 -6 -8 -7 -8 -3 0 10 -97 -52 -170 -108 -61 -47 -150 -133 -192 -186 -52
-64 -118 -159 -112 -159 4 0 1 -8 -7 -17 -20 -24 -80 -143 -73 -143 4 0 2 -6
-4 -12 -5 -7 -20 -47 -33 -88 -28 -93 -22 -65 -46 -205 -15 -84 -8 -310 11
-407 3 -16 8 -38 10 -50 21 -110 140 -373 183 -406 9 -6 13 -12 9 -12 -5 0 4
-17 20 -37 126 -165 278 -290 467 -381 47 -23 93 -42 101 -42 8 0 17 -4 20 -9
3 -5 18 -11 33 -14 16 -3 48 -11 73 -17 113 -29 161 -35 310 -35 114 0 159 4
245 21 55 11 132 32 160 43 11 5 31 13 45 18 37 14 214 105 220 112 3 4 22 17
43 30 20 12 37 27 37 32 0 5 3 8 8 7 18 -7 212 188 212 213 0 5 4 8 9 5 4 -3
13 6 19 20 7 13 16 30 22 37 80 95 175 333 203 507 15 95 17 328 2 380 -4 14
-7 32 -7 40 0 8 -6 36 -13 63 -8 26 -12 47 -9 47 2 0 -2 13 -10 29 -9 16 -12
31 -9 35 4 3 1 6 -5 6 -7 0 -11 3 -11 8 1 4 0 9 -1 12 -1 3 -3 12 -5 21 -5 25
-77 174 -87 177 -4 2 -8 8 -8 13 0 8 -47 87 -60 99 -3 3 -22 26 -42 52 -45 55
-125 136 -169 169 -17 13 -36 29 -42 34 -31 28 -105 73 -111 68 -3 -4 -6 -1
-6 5 0 30 -282 141 -405 159 -16 2 -37 6 -45 9 -18 7 -295 16 -301 10z"/>
</g>
</svg>
